<svg viewBox="0 0 51 41" xmlns="http://www.w3.org/2000/svg" data-logo="logo">
            <g transform="translate(0, 0) rotate(0)" id="logogram" style="opacity: 1;"><path fill="#E0E0EB" d="M13.1469 0.69989L23.4811 9.52876C24.0946 10.0529 24.4483 10.8221 24.4483 11.6322V18.2861L14.1141 9.45723C13.5006 8.93308 13.1469 8.16389 13.1469 7.35375V0.69989Z"></path><path fill="#D4D4E3" d="M13.1469 40.6999L23.4811 31.871C24.0946 31.3469 24.4483 30.5777 24.4483 29.7675V23.1137L14.1141 31.9426C13.5006 32.4667 13.1469 33.2359 13.1469 34.046V40.6999Z"></path><path fill="#E6DFEC" d="M0.818115 10.0102L11.0117 18.6704C11.5059 19.0903 12.1318 19.3206 12.7785 19.3206H20.9992L10.8306 10.6624C10.3361 10.2413 9.70929 10.0102 9.06158 10.0102H0.818115Z"></path><path fill="#DED9E2" d="M0.818115 31.3895L10.949 22.7343C11.4441 22.3114 12.0723 22.0792 12.7216 22.0792H21.0236L10.8301 30.7393C10.3358 31.1592 9.70997 31.3895 9.06329 31.3895H0.818115Z"></path><path fill="#DCDCEA" d="M38.4893 0.69989L28.1552 9.52876C27.5417 10.0529 27.188 10.8221 27.188 11.6322V18.2861L37.5222 9.45723C38.1357 8.93308 38.4893 8.16389 38.4893 7.35375V0.69989Z"></path><path fill="#E6DFEC" d="M38.4893 40.6999L28.1552 31.871C27.5417 31.3469 27.188 30.5777 27.188 29.7675V23.1137L37.5222 31.9426C38.1357 32.4667 38.4893 33.2359 38.4893 34.046V40.6999Z"></path><path fill="#D9D5DD" d="M50.8181 10.0102L40.6245 18.6704C40.1303 19.0903 39.5045 19.3206 38.8578 19.3206H30.6371L40.8056 10.6624C41.3002 10.2413 41.9269 10.0102 42.5747 10.0102H50.8181Z"></path><path fill="#EDEAF1" d="M50.8181 31.3895L40.6872 22.7343C40.1921 22.3114 39.564 22.0792 38.9147 22.0792H30.6126L40.8062 30.7393C41.3004 31.1592 41.9263 31.3895 42.5729 31.3895H50.8181Z"></path></g>
            <g transform="translate(51, 20.5)" id="logotype" style="opacity: 1;"></g>
            
          </svg>